# This file is brought to you by Roblox Corporation
# Generated by Roblox Studio

mtllib pick aud hed.mtl

g Head1

v 52.0858 4.94874 -719.004 
v 51.9162 4.82396 -720.268 
v 51.9162 4.83751 -720.268 
v 52.0858 5.14396 -719.004 
v 52.0858 4.94874 -718.568 
v 51.9388 4.84392 -717.291 
v 51.9388 4.82396 -717.291 
v 52.0858 5.14396 -718.568 
v 52.0858 4.94874 -718.568 
v 52.0858 4.94874 -719.004 
v 52.0858 5.14396 -719.004 
v 52.0858 5.14396 -718.568 
v 51.8058 5.14396 -719.004 
v 51.9162 4.83751 -720.268 
v 51.9079 4.83751 -720.268 
v 52.0858 5.14396 -719.004 
v 51.8058 5.14396 -718.568 
v 51.9388 4.84392 -717.291 
v 52.0858 5.14396 -718.568 
v 51.9318 4.84392 -717.291 
v 51.8058 5.14396 -719.004 
v 52.0858 5.14396 -718.568 
v 52.0858 5.14396 -719.004 
v 51.8058 5.14396 -718.568 
v 51.9318 4.82396 -717.291 
v 51.9388 4.82396 -717.291 
v 51.9388 4.84392 -717.291 
v 51.9318 4.84392 -717.291 
v 51.9131 4.83876 -720.268 
v 51.8058 4.94874 -719.004 
v 51.8058 5.14396 -719.004 
v 51.8058 4.94874 -718.568 
v 51.9318 4.84392 -717.291 
v 51.8058 5.14396 -718.568 
v 51.9318 4.82396 -717.291 
v 51.8058 4.94874 -719.004 
v 51.8058 5.14396 -718.568 
v 51.8058 5.14396 -719.004 
v 51.8058 4.94874 -718.568 
v 51.8058 4.94874 -719.004 
v 51.9162 4.82396 -720.268 
v 51.9131 4.83876 -720.268 
v 52.0858 4.94874 -719.004 
v 51.8058 4.94874 -718.568 
v 51.8058 4.94874 -719.004 
v 52.0858 4.94874 -718.568 
v 51.8058 4.94874 -718.568 
v 51.9388 4.82396 -717.291 
v 51.9318 4.82396 -717.291 
v 52.0858 4.94874 -718.568 
v 51.8058 4.94874 -719.004 
v 51.9162 4.82396 -720.268 
v 52.0858 4.94874 -719.004 
v 51.9162 4.82396 -720.268 
v 51.9131 4.83876 -720.268 
v 51.9162 4.83751 -720.268 

vn 0.992126 0 -0.133858 
vn 0.992126 0 -0.133858 
vn 0.992126 0 -0.133858 
vn 0.992126 0 -0.133858 
vn 0.992126 0 0.11811 
vn 0.992126 0 0.11811 
vn 0.992126 0 0.11811 
vn 0.992126 0 0.11811 
vn 1 0 0 
vn 1 0 0 
vn 1 0 0 
vn 1 0 0 
vn 0 0.968504 -0.23622 
vn 0 0.968504 -0.23622 
vn 0 0.968504 -0.23622 
vn 0 0.968504 -0.23622 
vn 0 0.976378 0.228346 
vn 0 0.976378 0.228346 
vn 0 0.976378 0.228346 
vn 0 0.976378 0.228346 
vn 0 1 0 
vn 0 1 0 
vn 0 1 0 
vn 0 1 0 
vn 0 0 1 
vn 0 0 1 
vn 0 0 1 
vn 0 0 1 
vn -1 -0.023622 -0.0787402 
vn -1 -0.023622 -0.0787402 
vn -1 -0.023622 -0.0787402 
vn -0.992126 0 0.0944882 
vn -0.992126 0 0.0944882 
vn -0.992126 0 0.0944882 
vn -0.992126 0 0.0944882 
vn -1 0 0 
vn -1 0 0 
vn -1 0 0 
vn -1 0 0 
vn -0.0551181 -0.992126 0.0944882 
vn -0.0551181 -0.992126 0.0944882 
vn -0.0551181 -0.992126 0.0944882 
vn 0 -1 0 
vn 0 -1 0 
vn 0 -1 0 
vn 0 -1 0 
vn 0 -0.992126 -0.0944882 
vn 0 -0.992126 -0.0944882 
vn 0 -0.992126 -0.0944882 
vn 0 -0.992126 -0.0944882 
vn -0.0551181 -0.992126 0.0944882 
vn -0.0551181 -0.992126 0.0944882 
vn -0.0551181 -0.992126 0.0944882 
vn 0 0 -1 
vn 0 0 -1 
vn 0 0 -1 

vt 0.275607 1.63393 
vt 0.433625 1.61833 
vt 0.433625 1.62002 
vt 0.275607 1.65833 
vt 0.221164 1.63393 
vt 0.0615084 1.62083 
vt 0.0615084 1.61833 
vt 0.221164 1.65833 
vt 0.221164 1.63393 
vt 0.275607 1.63393 
vt 0.275607 1.65833 
vt 0.221164 1.65833 
vt 0.265066 1.61029 
vt 0.251265 1.45227 
vt 0.252301 1.45227 
vt 0.230066 1.61029 
vt 0.265066 1.66473 
vt 0.248443 1.82439 
vt 0.230066 1.66473 
vt 0.249324 1.82439 
vt 0.265066 1.61029 
vt 0.230066 1.66473 
vt 0.230066 1.61029 
vt 0.265066 1.66473 
vt 0.245808 1.61833 
vt 0.24669 1.61833 
vt 0.24669 1.62083 
vt 0.245808 1.62083 
vt 0.0615084 1.62018 
vt 0.219526 1.63393 
vt 0.219526 1.65833 
vt 0.273969 1.63393 
vt 0.433625 1.62083 
vt 0.273969 1.65833 
vt 0.433625 1.61833 
vt 0.219526 1.63393 
vt 0.273969 1.65833 
vt 0.219526 1.65833 
vt 0.273969 1.63393 
vt 0.219526 1.63393 
vt 0.0615084 1.61833 
vt 0.0615084 1.62018 
vt 0.265066 1.61029 
vt 0.230066 1.66473 
vt 0.230066 1.61029 
vt 0.265066 1.66473 
vt 0.230066 1.66473 
vt 0.24669 1.82439 
vt 0.245808 1.82439 
vt 0.265066 1.66473 
vt 0.230066 1.61029 
vt 0.243868 1.45227 
vt 0.265066 1.61029 
vt 0.251265 1.61833 
vt 0.251653 1.62018 
vt 0.251265 1.62002 

usemtl Head1Mtl

f 1/1/1 2/2/2 3/3/3 
f 3/3/3 4/4/4 1/1/1 
f 5/5/5 6/6/6 7/7/7 
f 6/6/6 5/5/5 8/8/8 
f 9/9/9 10/10/10 11/11/11 
f 11/11/11 12/12/12 9/9/9 
f 13/13/13 14/14/14 15/15/15 
f 14/14/14 13/13/13 16/16/16 
f 17/17/17 18/18/18 19/19/19 
f 18/18/18 17/17/17 20/20/20 
f 21/21/21 22/22/22 23/23/23 
f 22/22/22 21/21/21 24/24/24 
f 25/25/25 26/26/26 27/27/27 
f 25/25/25 27/27/27 28/28/28 
f 29/29/29 30/30/30 31/31/31 
f 32/32/32 33/33/33 34/34/34 
f 33/33/33 32/32/32 35/35/35 
f 36/36/36 37/37/37 38/38/38 
f 37/37/37 36/36/36 39/39/39 
f 41/41/41 40/40/40 42/42/42 
f 43/43/43 44/44/44 45/45/45 
f 44/44/44 43/43/43 46/46/46 
f 47/47/47 48/48/48 49/49/49 
f 48/48/48 47/47/47 50/50/50 
f 51/51/51 52/52/52 53/53/53 
f 54/54/54 55/55/55 56/56/56 

