# This file is brought to you by Roblox Corporation
# Generated by Roblox Studio

mtllib Sword Aud Blade.mtl

g Swordblade1

v 54.9831 5.33002 -718.812 
v 54.9831 4.02822 -718.812 
v 54.9831 5.33002 -718.897 
v 54.9831 4.02822 -718.897 
v 54.9831 5.33002 -718.812 
v 54.792 6.6476 -718.851 
v 54.9831 5.33002 -718.897 
v 54.7462 6.61861 -718.846 
v 54.792 6.6476 -718.851 
v 54.721 6.62932 -718.846 
v 54.8046 6.64932 -718.848 
v 54.5071 5.33002 -718.812 
v 54.6547 6.60367 -718.849 
v 54.6672 6.60539 -718.846 
v 54.721 6.62932 -718.846 
v 54.6672 6.60539 -718.846 
v 54.7462 6.61861 -718.846 
v 54.6547 6.60367 -718.849 
v 54.7273 4.02822 -718.812 
v 54.5071 5.33002 -718.812 
v 54.5071 4.02822 -718.812 
v 54.7413 5.34087 -718.822 
v 54.9831 4.02822 -718.812 
v 54.9831 5.33002 -718.812 
v 54.7273 4.02822 -718.812 
v 54.7413 5.34087 -718.822 
v 54.9831 5.33002 -718.812 
v 54.7462 6.61861 -718.846 
v 54.7413 5.34087 -718.822 
v 54.8046 6.64932 -718.848 
v 54.7413 5.34087 -718.822 
v 54.6672 6.60539 -718.846 
v 54.5071 5.33002 -718.812 
v 54.7462 6.61861 -718.846 
v 54.5071 4.02822 -718.897 
v 54.5071 5.33002 -718.812 
v 54.5071 5.33002 -718.897 
v 54.5071 4.02822 -718.812 
v 54.5071 5.33002 -718.812 
v 54.6547 6.60367 -718.849 
v 54.5071 5.33002 -718.897 
v 54.7273 4.02822 -718.812 
v 54.5071 4.02822 -718.812 
v 54.7273 4.02822 -718.897 
v 54.5071 4.02822 -718.897 
v 54.9831 4.02822 -718.897 
v 54.9831 4.02822 -718.812 
v 54.8046 6.64932 -718.848 
v 54.9831 5.33002 -718.812 
v 54.792 6.6476 -718.851 
v 54.9831 5.33002 -718.897 
v 54.7273 4.02822 -718.897 
v 54.7509 5.36248 -718.888 
v 54.9831 4.02822 -718.897 
v 54.7509 5.36248 -718.888 
v 54.7273 4.02822 -718.897 
v 54.5071 5.33002 -718.897 
v 54.5071 4.02822 -718.897 
v 54.721 6.62932 -718.846 
v 54.7509 5.36248 -718.888 
v 54.6547 6.60367 -718.849 
v 54.5071 5.33002 -718.897 
v 54.792 6.6476 -718.851 
v 54.9831 5.33002 -718.897 
v 54.721 6.62932 -718.846 
v 54.7509 5.36248 -718.888 

vn 1 0 0 
vn 1 0 0 
vn 1 0 0 
vn 1 0 0 
vn 0.976378 0.141732 -0.141732 
vn 0.976378 0.141732 -0.141732 
vn 0.976378 0.141732 -0.141732 
vn -0.00787402 0.181102 0.984252 
vn -0.00787402 0.181102 0.984252 
vn -0.00787402 0.181102 0.984252 
vn -0.00787402 0.181102 0.984252 
vn -0.984252 0.11811 0.141732 
vn -0.984252 0.11811 0.141732 
vn -0.984252 0.11811 0.141732 
vn -0.0393701 0.0629921 1 
vn -0.0393701 0.0629921 1 
vn -0.0393701 0.0629921 1 
vn -0.0393701 0.0629921 1 
vn 0.023622 0 1 
vn 0.023622 0 1 
vn 0.023622 0 1 
vn 0.023622 0 1 
vn -0.023622 0.00787402 1 
vn -0.023622 0.00787402 1 
vn -0.023622 0.00787402 1 
vn -0.023622 0.00787402 1 
vn -0.0314961 0.023622 1 
vn -0.0314961 0.023622 1 
vn -0.0314961 0.023622 1 
vn -0.0314961 0.023622 1 
vn 0.0314961 0.023622 1 
vn 0.0314961 0.023622 1 
vn 0.0314961 0.023622 1 
vn 0.0314961 0.023622 1 
vn -1 0 0 
vn -1 0 0 
vn -1 0 0 
vn -1 0 0 
vn -0.984252 0.11811 0.141732 
vn -0.984252 0.11811 0.141732 
vn -0.984252 0.11811 0.141732 
vn 0 -1 0 
vn 0 -1 0 
vn 0 -1 0 
vn 0 -1 0 
vn 0 -1 0 
vn 0 -1 0 
vn 0.976378 0.141732 -0.141732 
vn 0.976378 0.141732 -0.141732 
vn 0.976378 0.141732 -0.141732 
vn -0.015748 0 -1 
vn -0.015748 0 -1 
vn -0.015748 0 -1 
vn -0.015748 0 -1 
vn 0.015748 0 -1 
vn 0.015748 0 -1 
vn 0.015748 0 -1 
vn 0.015748 0 -1 
vn 0.0314961 0.0314961 -1 
vn 0.0314961 0.0314961 -1 
vn 0.0314961 0.0314961 -1 
vn 0.0314961 0.0314961 -1 
vn -0.0472441 0.0314961 -1 
vn -0.0472441 0.0314961 -1 
vn -0.0472441 0.0314961 -1 
vn -0.0472441 0.0314961 -1 

vt 0.0789713 2.24516 
vt 0.0789713 2.08244 
vt 0.0895828 2.24516 
vt 0.0895828 2.08244 
vt 0.0789713 2.24516 
vt 0.0838896 2.40986 
vt 0.0895828 2.24516 
vt 0.0844164 2.40624 
vt 0.0901409 2.40986 
vt 0.0812676 2.40757 
vt 0.09171 2.41007 
vt 0.0545228 2.24516 
vt 0.0729752 2.40437 
vt 0.0745443 2.40458 
vt 0.0812676 2.40757 
vt 0.0745443 2.40458 
vt 0.0844164 2.40624 
vt 0.0729752 2.40437 
vt 0.0820456 2.08244 
vt 0.0545228 2.24516 
vt 0.0545228 2.08244 
vt 0.0838066 2.24652 
vt 0.114031 2.08244 
vt 0.114031 2.24516 
vt 0.0820456 2.08244 
vt 0.0838066 2.24652 
vt 0.114031 2.24516 
vt 0.0844164 2.40624 
vt 0.0838066 2.24652 
vt 0.09171 2.41007 
vt 0.0838066 2.24652 
vt 0.0745443 2.40458 
vt 0.0545228 2.24516 
vt 0.0844164 2.40624 
vt 0.0789713 2.08244 
vt 0.0895828 2.24516 
vt 0.0789713 2.24516 
vt 0.0895828 2.08244 
vt 0.0895828 2.24516 
vt 0.084962 2.40437 
vt 0.0789713 2.24516 
vt 0.0820456 2.25156 
vt 0.0545228 2.25156 
vt 0.0820456 2.24095 
vt 0.0545228 2.24095 
vt 0.114031 2.24095 
vt 0.114031 2.25156 
vt 0.0768441 2.41007 
vt 0.0545228 2.24516 
vt 0.0784132 2.40986 
vt 0.0545228 2.24516 
vt 0.0865085 2.08244 
vt 0.083553 2.24922 
vt 0.0545228 2.08244 
vt 0.083553 2.24922 
vt 0.0865085 2.08244 
vt 0.114031 2.24516 
vt 0.114031 2.08244 
vt 0.0872865 2.40757 
vt 0.083553 2.24922 
vt 0.095579 2.40437 
vt 0.114031 2.24516 
vt 0.0784132 2.40986 
vt 0.0545228 2.24516 
vt 0.0872865 2.40757 
vt 0.083553 2.24922 

usemtl Swordblade1Mtl

f 1/1/1 2/2/2 3/3/3 
f 4/4/4 3/3/3 2/2/2 
f 7/7/7 6/6/6 5/5/5 
f 8/8/8 9/9/9 10/10/10 
f 9/9/9 8/8/8 11/11/11 
f 13/13/13 12/12/12 14/14/14 
f 15/15/15 16/16/16 17/17/17 
f 15/15/15 18/18/18 16/16/16 
f 19/19/19 20/20/20 21/21/21 
f 20/20/20 19/19/19 22/22/22 
f 23/23/23 24/24/24 25/25/25 
f 25/25/25 24/24/24 26/26/26 
f 27/27/27 28/28/28 29/29/29 
f 28/28/28 27/27/27 30/30/30 
f 31/31/31 32/32/32 33/33/33 
f 32/32/32 31/31/31 34/34/34 
f 35/35/35 36/36/36 37/37/37 
f 36/36/36 35/35/35 38/38/38 
f 39/39/39 40/40/40 41/41/41 
f 42/42/42 43/43/43 44/44/44 
f 45/45/45 44/44/44 43/43/43 
f 44/44/44 46/46/46 42/42/42 
f 47/47/47 42/42/42 46/46/46 
f 48/48/48 49/49/49 50/50/50 
f 51/51/51 52/52/52 53/53/53 
f 52/52/52 51/51/51 54/54/54 
f 55/55/55 56/56/56 57/57/57 
f 57/57/57 56/56/56 58/58/58 
f 59/59/59 60/60/60 61/61/61 
f 61/61/61 60/60/60 62/62/62 
f 63/63/63 64/64/64 65/65/65 
f 65/65/65 64/64/64 66/66/66 

