# Blender 3.4.1
# www.blender.org
mtllib bladesword.mtl
o Cube
v 0.007406 0.511613 -0.001027
v 0.022641 0.139403 -0.005244
v 0.008600 0.511365 -0.000677
v 0.022641 0.139403 0.005244
v -0.005656 0.517958 -0.000733
v -0.022641 0.139403 -0.005244
v -0.004462 0.517709 -0.000383
v -0.022641 0.139403 0.005244
v 0.002290 0.515069 -0.001086
v 0.001698 0.139403 0.005244
v -0.000106 0.513522 -0.000980
v 0.001698 0.139403 -0.005244
v 0.022641 0.327417 -0.005244
v 0.022641 0.327417 0.005244
v -0.022641 0.327417 0.005244
v -0.022641 0.327417 -0.005244
v 0.000358 0.328984 -0.003945
v -0.000551 0.332105 0.004162
vn 1.0000 -0.0000 -0.0000
vn 0.0230 0.0030 0.9997
vn -1.0000 -0.0000 -0.0000
vn -0.0299 0.0033 -0.9995
vn 0.0118 0.1533 -0.9881
vn -0.0000 -1.0000 -0.0000
vn 0.0482 0.0543 -0.9974
vn 0.0273 0.0035 -0.9996
vn -0.0242 0.0027 0.9997
vn -0.0422 0.0291 0.9987
vn 0.0386 0.0182 -0.9991
vn -0.0431 0.0176 -0.9989
vn -0.9896 0.0917 0.1111
vn 0.0599 0.0257 0.9979
vn 0.9911 0.0783 -0.1074
vt 0.125000 0.750000
vt 0.375000 1.000000
vt 0.375000 0.000000
vt 0.625000 0.000000
vt 0.625000 1.000000
vt 0.875000 0.750000
vt 0.125000 0.500000
vt 0.375000 0.250000
vt 0.875000 0.500000
vt 0.625000 0.250000
vt 0.375000 0.750000
vt 0.625000 0.750000
vt 0.375000 0.500000
vt 0.625000 0.500000
vt 0.240625 0.500000
vt 0.375000 0.365625
vt 0.759375 0.500000
vt 0.625000 0.365625
vt 0.240625 0.750000
vt 0.375000 0.884375
vt 0.759375 0.750000
vt 0.625000 0.884375
vt 0.498004 1.000000
vt 0.498004 0.000000
vt 0.498004 0.250000
vt 0.498004 0.500000
vt 0.498004 0.750000
vt 0.498004 0.884375
vt 0.498004 0.365625
s 0
f 13/24/1 14/25/1 4/10/1 2/4/1
f 18/29/2 15/26/2 8/14/2 10/18/2
f 15/26/3 16/27/3 6/12/3 8/14/3
f 17/28/4 13/23/4 2/5/4 12/22/4
f 9/15/5 11/19/5 5/11/5 7/13/5
f 10/17/6 12/21/6 2/6/6 4/9/6
f 8/14/6 6/12/6 12/21/6 10/17/6
f 3/7/7 1/1/7 11/19/7 9/15/7
f 16/27/8 17/28/8 12/22/8 6/12/8
f 14/25/9 18/29/9 10/18/9 4/10/9
f 3/8/10 9/16/10 18/29/10 14/25/10
f 5/11/11 11/20/11 17/28/11 16/27/11
f 11/20/12 1/2/12 13/23/12 17/28/12
f 7/13/13 5/11/13 16/27/13 15/26/13
f 9/16/14 7/13/14 15/26/14 18/29/14
f 1/3/15 3/8/15 14/25/15 13/24/15
