# Blender 3.4.1
# www.blender.org
mtllib rockmod2.mtl
o Cube
v -0.233551 -0.033207 0.686120
v -0.234656 0.064826 0.755963
v -0.336071 0.039359 0.651893
v -0.197625 1.918535 0.085750
v -0.121418 1.872037 0.184877
v -0.103837 1.952184 0.053788
v -0.893798 0.022289 -0.878127
v -0.850269 0.017327 -0.971333
v -0.830151 -0.076594 -0.900018
v -0.148769 1.604589 -0.455670
v -0.243693 1.417306 -0.534776
v -0.287574 1.469063 -0.436806
v 0.893787 0.289775 0.649129
v 0.781202 0.312315 0.736522
v 0.810576 0.177611 0.695360
v 0.735433 1.510657 0.143478
v 0.613722 1.378036 0.226915
v 0.816136 1.314491 0.206342
v 0.900594 -0.078476 -0.900000
v 0.901869 0.013119 -0.959871
v 1.002059 0.021503 -0.847026
v 0.962724 1.462983 -0.225872
v 1.070373 1.375059 -0.262968
v 0.931586 1.407192 -0.365437
v -0.330825 0.038889 0.044194
v -0.387579 0.036362 -0.139226
v -0.229717 -0.061956 -0.024292
v -0.201838 1.596799 -0.372574
v -0.147366 1.807555 -0.219059
v -0.046384 1.872084 -0.206124
v -0.070039 1.755640 -0.342270
v 1.015667 0.020289 0.067163
v 1.000423 0.080215 0.261992
v 0.900627 -0.077141 0.155488
v 1.111990 1.262145 0.127703
v 1.168670 1.277076 0.027062
v 1.042587 1.441231 -0.052173
v 0.811475 1.453622 0.072186
vn 0.2866 0.8043 -0.5205
vn -0.0066 -0.9999 0.0103
vn 0.9932 -0.0639 -0.0976
vn 0.0678 -0.9719 0.2255
vn 0.4742 0.8645 -0.1668
vn 0.0597 0.3336 -0.9408
vn 0.7875 0.1446 0.5992
vn -0.8071 0.1735 0.5643
vn 0.0376 0.3525 0.9351
vn -0.5651 -0.4829 0.6689
vn -0.1345 0.8533 0.5037
vn -0.8191 -0.4478 -0.3587
vn -0.6141 0.5502 -0.5658
vn 0.5950 -0.1134 0.7957
vn 0.2097 0.3756 0.9028
vn 0.7007 -0.3971 -0.5927
vn 0.4851 0.7693 -0.4158
vn -0.6196 -0.7585 0.2022
vn -0.5029 0.6371 -0.5841
vn 0.7308 -0.6342 0.2523
vn 0.4246 0.7182 0.5512
vn -0.6471 -0.7623 0.0124
vn -0.7160 0.2500 0.6518
vn -0.6761 0.6360 -0.3722
vn -0.7449 0.4649 -0.4785
vn 0.0017 -0.5773 -0.8166
vn 0.1756 0.6065 -0.7754
vn 0.6583 0.2768 -0.7001
vn 0.6733 -0.7393 -0.0046
vn 0.4426 0.6301 0.6381
vn 0.3948 0.4189 0.8178
vn 0.0975 -0.4180 0.9032
vn 0.2827 0.5830 0.7617
vn -0.6870 -0.5450 0.4806
vn -0.4475 0.8177 -0.3620
vn 0.6974 -0.5705 0.4337
vn 0.7379 0.6656 -0.1117
vn 0.3818 0.9124 -0.1472
vn 0.9648 -0.0869 0.2481
vn -0.9632 0.1409 0.2288
vn -0.9950 0.0720 -0.0693
vt 0.146683 0.737116
vt 0.387923 0.978860
vt 0.148586 0.749003
vt 0.390294 0.000000
vt 0.151504 0.750000
vt 0.128026 0.735909
vt 0.125000 0.733174
vt 0.387043 0.013442
vt 0.613216 0.019268
vt 0.605634 0.004201
vt 0.605373 0.000000
vt 0.610944 0.974485
vt 0.853057 0.727345
vt 0.619137 0.024809
vt 0.625000 0.968498
vt 0.625000 0.027993
vt 0.127849 0.518722
vt 0.390027 0.234678
vt 0.125000 0.520429
vt 0.141407 0.504433
vt 0.389965 0.264139
vt 0.143716 0.500000
vt 0.138290 0.515076
vt 0.854526 0.537452
vt 0.625000 0.195202
vt 0.625000 0.280991
vt 0.610022 0.267859
vt 0.622536 0.256047
vt 0.601118 0.198049
vt 0.373281 0.731531
vt 0.393438 0.734323
vt 0.353678 0.746401
vt 0.391637 0.770925
vt 0.356780 0.750000
vt 0.355619 0.735649
vt 0.625000 0.745140
vt 0.643351 0.731700
vt 0.625000 0.755649
vt 0.616015 0.750000
vt 0.607008 0.775501
vt 0.606165 0.731070
vt 0.361156 0.512960
vt 0.361891 0.505385
vt 0.362734 0.500000
vt 0.389632 0.486433
vt 0.375000 0.519122
vt 0.391110 0.514598
vt 0.622608 0.525698
vt 0.625000 0.489833
vt 0.644605 0.533630
vt 0.609434 0.526281
vt 0.609427 0.500000
vt 0.610325 0.482731
vt 0.129349 0.646412
vt 0.125000 0.657212
vt 0.387474 0.090274
vt 0.128011 0.631576
vt 0.125000 0.633300
vt 0.388559 0.118240
vt 0.145980 0.646412
vt 0.603700 0.150400
vt 0.614396 0.103588
vt 0.612669 0.084276
vt 0.623683 0.103588
vt 0.625000 0.083656
vt 0.855835 0.668484
vt 0.611307 0.103588
vt 0.625000 0.129300
vt 0.856827 0.612026
vt 0.391873 0.632243
vt 0.394063 0.663031
vt 0.356493 0.646412
vt 0.607284 0.664709
vt 0.608336 0.620251
vt 0.649002 0.603952
vt 0.663803 0.687663
s 0
f 22/50/1 10/24/1 31/69/1 37/75/1
f 9/23/2 19/42/2 34/72/2 27/60/2
f 21/47/3 23/51/3 36/74/3 32/70/3
f 27/60/4 34/72/4 15/35/4 1/1/4
f 38/76/5 30/66/5 6/13/5 16/37/5
f 8/21/6 11/27/6 24/53/6 20/45/6
f 33/71/7 35/73/7 18/41/7 13/31/7
f 26/59/8 28/61/8 12/29/8 7/18/8
f 14/33/9 17/40/9 5/12/9 2/2/9
f 1/1/10 2/3/10 3/6/10
f 4/9/11 5/10/11 6/14/11
f 7/17/12 8/20/12 9/23/12
f 10/26/13 11/27/13 12/28/13
f 13/30/14 14/32/14 15/35/14
f 16/36/15 17/39/15 18/41/15
f 19/42/16 20/43/16 21/46/16
f 22/48/17 23/51/17 24/52/17
f 25/54/18 26/57/18 27/60/18
f 28/61/19 29/62/19 30/64/19 31/67/19
f 32/70/20 33/71/20 34/72/20
f 35/73/21 36/74/21 37/75/21 38/76/21
f 27/60/22 1/1/22 3/7/22 25/55/22
f 2/4/23 5/11/23 4/9/23 3/8/23
f 31/68/24 10/25/24 12/29/24 28/61/24
f 11/27/25 8/21/25 7/18/25 12/29/25
f 19/42/26 9/23/26 8/22/26 20/44/26
f 10/26/27 22/49/27 24/53/27 11/27/27
f 23/51/28 21/47/28 20/45/28 24/53/28
f 34/72/29 19/42/29 21/47/29 32/70/29
f 38/76/30 16/37/30 18/41/30 35/73/30
f 17/40/31 14/33/31 13/31/31 18/41/31
f 1/1/32 15/35/32 14/34/32 2/5/32
f 16/38/33 6/15/33 5/12/33 17/40/33
f 9/23/34 27/60/34 26/58/34 7/19/34
f 6/16/35 30/65/35 29/63/35 4/9/35
f 15/35/36 34/72/36 33/71/36 13/31/36
f 22/50/37 37/75/37 36/74/37 23/51/37
f 30/66/38 38/76/38 37/75/38 31/69/38
f 35/73/39 33/71/39 32/70/39 36/74/39
f 28/61/40 26/59/40 25/56/40 29/63/40
f 3/8/41 4/9/41 29/63/41 25/56/41
