# Blender 3.4.1
# www.blender.org
mtllib rockmod1.mtl
o Cube
v -0.917575 0.443578 0.886401
v -0.785881 0.327556 0.899140
v -0.796876 0.454412 0.981064
v -1.375646 1.644444 0.584474
v -1.427852 1.684077 0.435457
v -1.478613 1.613358 0.485954
v -0.893816 -0.045603 -0.902331
v -1.033003 0.063638 -0.821090
v -0.929843 0.017358 -0.946411
v -1.389854 1.236048 -0.302991
v -1.308018 1.308977 -0.322217
v -1.257944 1.145249 -0.454779
v 0.902625 -0.044308 0.899816
v 0.965400 0.026753 0.886047
v 0.847380 0.070060 0.984168
v 0.442169 1.577262 0.485250
v 0.310476 1.666515 0.445808
v 0.372905 1.632322 0.561839
v 0.900000 -0.067070 -0.900000
v 0.806153 0.028525 -0.970648
v 0.949091 0.019001 -0.873643
v 0.069250 0.661564 -0.736020
v -0.180952 0.925825 -0.585422
v -0.001422 0.846320 -0.621820
v -1.200040 1.196791 0.780928
v -1.075391 1.210165 0.874726
v -1.241207 0.643543 -0.457994
v -1.137842 0.574002 -0.600407
v 0.604209 0.365834 -0.850968
v 0.750077 0.375248 -0.766518
v 0.684465 0.774632 0.780711
v 0.568843 0.825818 0.877831
vn 0.0699 0.8398 -0.5383
vn 0.9165 0.3985 -0.0354
vn -0.9180 -0.3682 0.1474
vn 0.0335 0.1514 0.9879
vn -0.0455 0.4450 -0.8944
vn 0.0585 0.4570 0.8875
vn 0.7598 0.5522 -0.3433
vn -0.1236 0.1988 -0.9722
vn -0.1116 -0.9874 0.1120
vn -0.5070 -0.4982 0.7034
vn -0.5899 0.7048 0.3941
vn -0.6952 -0.6344 -0.3380
vn -0.5451 0.4205 -0.7253
vn 0.5336 -0.3197 0.7830
vn 0.5736 0.8163 -0.0681
vn 0.5574 -0.0645 -0.8277
vn 0.0714 0.5441 -0.8360
vn -0.5947 -0.7774 0.2047
vn -0.6521 0.0753 0.7544
vn -0.7660 0.5314 -0.3618
vn -0.7603 0.1198 -0.6384
vn -0.0067 -0.5898 -0.8075
vn 0.0131 0.5581 -0.8297
vn 0.4594 0.5046 -0.7309
vn 0.8146 -0.5800 0.0006
vn 0.3745 0.6792 -0.6312
vn 0.6801 0.3442 0.6473
vn -0.1341 -0.5871 0.7983
vn 0.0091 0.9643 0.2646
vn -0.5985 -0.1111 0.7934
vn -0.7867 -0.0223 -0.6170
vn 0.2398 0.6473 -0.7235
vn 0.7388 0.4057 0.5382
vn -0.9147 -0.3686 0.1654
vt 0.125000 0.738485
vt 0.389256 0.013309
vt 0.137878 0.737733
vt 0.391021 0.983842
vt 0.134229 0.749468
vt 0.132708 0.750000
vt 0.381889 0.000000
vt 0.596375 0.002113
vt 0.594198 0.000000
vt 0.604765 0.985937
vt 0.861183 0.726944
vt 0.617672 0.025317
vt 0.625000 0.028047
vt 0.625000 0.985549
vt 0.606384 0.021601
vt 0.137603 0.512281
vt 0.125000 0.524472
vt 0.394914 0.235465
vt 0.132339 0.507746
vt 0.392453 0.263037
vt 0.133770 0.500000
vt 0.618671 0.250000
vt 0.604642 0.222831
vt 0.857788 0.523395
vt 0.625000 0.235127
vt 0.625000 0.261100
vt 0.604314 0.270943
vt 0.362123 0.737557
vt 0.369186 0.736983
vt 0.389393 0.737072
vt 0.353191 0.749463
vt 0.391021 0.764872
vt 0.351677 0.750000
vt 0.612490 0.734677
vt 0.625000 0.727290
vt 0.639038 0.732547
vt 0.625000 0.768258
vt 0.621848 0.747094
vt 0.611309 0.763833
vt 0.362411 0.512444
vt 0.349359 0.504987
vt 0.350769 0.500000
vt 0.402796 0.482597
vt 0.367345 0.516968
vt 0.399568 0.513030
vt 0.574816 0.479625
vt 0.625000 0.481797
vt 0.641864 0.517082
vt 0.613940 0.500000
vt 0.612814 0.515445
vt 0.500084 0.016028
vt 0.500084 0.983814
vt 0.500084 0.000000
vt 0.490937 0.000000
vt 0.500084 0.228255
vt 0.500084 0.263448
vt 0.500084 0.481204
vt 0.500084 0.515148
vt 0.500084 0.736101
vt 0.500084 0.764848
s 0
f 23/48/1 11/24/1 5/11/1 17/36/1
f 21/45/2 30/58/2 31/59/2 14/30/2
f 25/51/3 6/15/3 10/23/3 27/55/3
f 15/32/4 32/60/4 26/52/4 3/4/4
f 9/20/5 28/56/5 29/57/5 20/43/5
f 32/60/6 18/39/6 4/10/6 26/52/6
f 30/58/7 24/50/7 16/34/7 31/59/7
f 28/56/8 12/27/8 22/46/8 29/57/8
f 7/16/9 19/40/9 13/28/9 2/3/9
f 1/1/10 2/3/10 3/5/10
f 4/8/11 5/12/11 6/15/11
f 7/16/12 8/17/12 9/19/12
f 10/22/13 11/26/13 12/27/13
f 13/28/14 14/29/14 15/31/14
f 16/34/15 17/35/15 18/38/15
f 19/40/16 20/41/16 21/44/16
f 22/46/17 23/47/17 24/49/17
f 7/16/18 2/3/18 1/1/18 8/17/18
f 26/53/19 4/9/19 6/15/19 25/51/19
f 5/13/20 11/25/20 10/23/20 6/15/20
f 28/56/21 9/20/21 8/18/21 27/55/21
f 19/40/22 7/16/22 9/21/22 20/42/22
f 11/26/23 23/47/23 22/46/23 12/27/23
f 30/58/24 21/45/24 20/43/24 29/57/24
f 13/28/25 19/40/25 21/45/25 14/30/25
f 23/48/26 17/36/26 16/34/26 24/50/26
f 32/60/27 15/32/27 14/30/27 31/59/27
f 2/3/28 13/28/28 15/33/28 3/6/28
f 17/37/29 5/14/29 4/10/29 18/39/29
f 3/7/30 26/54/30 25/51/30 1/2/30
f 12/27/31 28/56/31 27/55/31 10/23/31
f 24/50/32 30/58/32 29/57/32 22/46/32
f 18/39/33 32/60/33 31/59/33 16/34/33
f 1/2/34 25/51/34 27/55/34 8/18/34
