# Blender 3.4.1
# www.blender.org
mtllib Head.mtl
o Axe_head
v 0.144892 11.823285 -0.574907
v -0.087351 11.832568 -0.562824
v 0.140768 12.283390 -0.560374
v -0.083979 12.286208 -0.546957
v 0.145039 12.233646 -0.916390
v -0.077958 12.234956 -0.902661
v -0.083222 12.387967 -0.543397
v -0.076525 12.372455 -0.919505
v -0.121169 11.522308 0.377212
v -0.109255 11.449289 0.373206
v -0.109675 11.516426 0.441910
v -0.086075 12.781186 0.383337
v -0.074368 12.809821 0.445784
v -0.070102 12.853463 0.381927
v -0.033772 10.704690 -1.148086
v -0.018672 10.576194 -1.213773
v -0.015932 10.561878 -1.169401
v -0.105514 12.983259 -1.245648
v -0.099614 13.155234 -1.306450
v -0.099344 13.144268 -1.334795
v 0.158718 11.469677 0.370025
v 0.150288 11.465978 0.439066
v 0.150481 11.400807 0.371025
v 0.132939 12.756774 0.351475
v 0.120927 12.832553 0.351679
v 0.121417 12.787300 0.418319
v 0.181049 10.561281 -1.181072
v 0.180246 10.576194 -1.226346
v 0.189815 10.705774 -1.158796
v 0.099579 13.144268 -1.347369
v 0.096012 13.155418 -1.318538
v 0.110492 13.003076 -1.279327
v -0.109628 12.175381 0.424492
v -0.119099 12.156152 0.366066
v -0.066144 11.601974 -1.172683
v -0.052675 11.578162 -1.236374
v 0.146245 11.578162 -1.248947
v 0.156294 11.602039 -1.183934
v 0.133309 12.127795 0.352263
v 0.121299 12.150146 0.416952
v -0.109414 11.497646 -0.516456
v -0.115091 11.563145 -0.582281
v -0.098983 11.437946 -0.620929
v -0.070658 12.510366 -0.474981
v -0.072927 12.506748 -0.607799
v -0.083120 12.401795 -0.542914
v 0.113376 11.478387 -0.525943
v 0.116540 11.421816 -0.630577
v 0.126299 11.551634 -0.592457
v 0.139215 12.432937 -0.490234
v 0.132593 12.432986 -0.624352
v 0.120658 12.506501 -0.620118
v 0.126535 12.509389 -0.487060
v -0.082350 12.666190 0.441123
v -0.093174 12.643385 0.379897
v -0.073837 12.199884 -1.146064
v -0.061455 12.190526 -1.211723
v 0.137458 12.190526 -1.224295
v 0.147951 12.199726 -1.159166
v 0.133054 12.618115 0.351700
v 0.121374 12.643186 0.417858
v -0.088147 12.546231 -0.943363
v -0.080285 12.601774 -0.887519
v -0.084215 12.683518 -0.993549
v 0.187112 10.932690 -0.980296
v 0.176599 11.104140 -0.868801
v 0.179705 10.911602 -0.908186
v -0.072641 11.672612 -0.985865
v -0.076997 11.719975 -0.860602
v -0.075230 11.766937 -0.920536
v -0.054262 11.101534 -0.862093
v -0.041785 10.945084 -0.966172
v -0.025764 10.919254 -0.897339
v 0.112892 12.532541 -0.877789
v 0.106494 12.621206 -0.994656
v 0.086482 12.679784 -0.998710
v 0.092467 12.598501 -0.892319
v 0.150438 11.715667 -0.871150
v 0.152879 11.668300 -1.001537
v 0.150798 11.762427 -0.933748
v -0.087382 12.752661 0.383045
v -0.076224 12.776285 0.444822
v -0.091454 12.569490 -1.178864
v -0.084523 12.626934 -1.255191
v 0.114390 12.626934 -1.267763
v 0.126476 12.575478 -1.200532
v 0.132995 12.728095 0.351596
v 0.121399 12.753783 0.418089
v 0.137951 12.383471 -0.626355
v 0.139345 12.411425 -0.491054
v 0.140476 12.316014 -0.559344
v 0.128985 12.414588 -0.988087
v 0.131573 12.372924 -0.859806
v 0.136261 12.311482 -0.923568
vn 0.9999 0.0073 -0.0119
vn -0.9991 -0.0421 0.0099
vn 0.9990 0.0410 -0.0164
vn 0.0126 0.9307 -0.3656
vn 0.0258 0.0300 0.9992
vn -0.9992 -0.0391 -0.0064
vn -0.9993 0.0336 -0.0173
vn 1.0000 0.0036 0.0061
vn 0.0318 -0.6095 0.7922
vn -0.0631 -0.0246 -0.9977
vn -0.1403 -0.9879 -0.0667
vn 0.9932 0.1117 -0.0328
vn -0.9979 -0.0628 -0.0126
vn 0.0240 0.9473 0.3195
vn -0.9993 0.0316 -0.0195
vn 0.1340 -0.0214 0.9907
vn -0.9997 -0.0086 -0.0236
vn 0.9976 0.0687 -0.0125
vn -0.9989 0.0322 -0.0338
vn -0.9914 0.0087 -0.1308
vn 0.9998 0.0127 0.0122
vn -0.0630 0.0392 -0.9972
vn 0.9999 0.0103 0.0128
vn 1.0000 0.0045 0.0089
vn 0.0685 -0.0197 0.9975
vn 0.0445 0.5550 0.8306
vn -0.0623 -0.1535 -0.9862
vn 0.9942 0.0712 0.0807
vn 0.0162 -0.4724 0.8813
vn 0.9959 0.0070 0.0904
vn -0.9998 0.0081 -0.0181
vn 1.0000 0.0044 0.0064
vn 0.1212 -0.0211 0.9924
vn -0.9995 -0.0308 0.0116
vn -0.9997 0.0013 -0.0261
vn 0.9971 0.0731 0.0228
vn -0.0628 -0.1022 -0.9928
vn -0.9732 -0.1674 0.1577
vn -0.9727 0.2166 0.0830
vn -0.9917 -0.1269 0.0203
vn -0.9994 0.0272 -0.0200
vn 0.9866 -0.1163 0.1142
vn 0.9829 0.1555 0.0984
vn 0.9978 -0.0550 -0.0358
vn 0.9904 0.1143 0.0783
vn -0.9925 -0.1179 -0.0317
vn -0.9943 0.1053 0.0141
vn 0.9916 -0.0991 0.0835
vn 0.9853 0.1641 -0.0478
vn -0.9949 0.0584 0.0819
vn 0.9949 -0.0046 0.1009
vn -0.9994 -0.0046 -0.0330
vn -0.9706 -0.1822 0.1575
vn 0.9228 0.3294 0.1996
vn 0.9998 0.0117 0.0145
vn 0.9996 0.0226 -0.0150
vn 0.9974 0.0725 0.0034
vn -0.9915 -0.1301 -0.0094
vn -0.9857 0.0470 0.1617
vn -0.9726 0.1054 0.2074
vn -0.9844 -0.0387 -0.1718
vn -0.0204 -0.9508 -0.3092
vn -0.0231 0.9319 -0.3620
vn 0.9831 0.0304 -0.1807
vn 0.9930 -0.0681 0.0960
vn 0.9854 0.1611 -0.0550
vn 0.9885 0.0444 0.1449
vn -0.1291 -0.7130 0.6892
vn 0.1743 0.8115 0.5578
vn -0.9859 0.0053 0.1673
vn -0.9808 -0.0051 -0.1947
vn 0.9867 0.0205 -0.1610
vn 0.9840 0.0001 0.1781
vn -0.9884 -0.1494 0.0252
vn -0.9805 0.1817 -0.0750
vn 0.9839 -0.1709 -0.0515
vn 0.9742 0.2255 -0.0066
vn 0.0016 0.9997 -0.0245
vn -0.0495 -0.8743 0.4829
vn -0.9874 0.0490 0.1503
vn -0.9857 -0.0645 -0.1559
vn 0.9870 0.0378 -0.1563
vn 0.9850 0.0001 0.1728
vn -0.9917 0.1148 0.0585
vn 0.9191 -0.1099 0.3783
vn -0.9755 -0.1507 0.1602
vn 0.9187 0.2178 0.3296
vn 0.0338 0.7936 0.6075
vn 0.9989 0.0450 0.0128
vn -0.9985 -0.0403 -0.0375
vn -0.9863 0.0486 0.1579
vn -0.9873 -0.0541 -0.1496
vn 0.9871 0.0053 -0.1603
vn 0.9853 0.0003 0.1707
vn 0.9962 0.0785 -0.0378
vn 0.9933 0.1133 0.0238
vn -0.9991 0.0332 -0.0250
vt 0.500000 0.583742
vt 0.500000 0.166258
vt 0.587054 0.583742
vt 0.587054 0.166258
vt 0.587054 0.538885
vt 0.587054 0.211115
vt 0.606581 0.166258
vt 0.606581 0.211115
vt 0.125000 0.738725
vt 0.388103 1.000000
vt 0.388204 0.010292
vt 0.135663 0.738629
vt 0.134586 0.748843
vt 0.134853 0.750000
vt 0.387095 0.989623
vt 0.611660 0.010685
vt 0.612529 0.986911
vt 0.616382 0.004880
vt 0.616282 0.000000
vt 0.865767 0.750000
vt 0.861265 0.738836
vt 0.625000 0.015210
vt 0.126750 0.514693
vt 0.388391 0.241870
vt 0.125000 0.514467
vt 0.138655 0.504128
vt 0.383246 0.262734
vt 0.135147 0.500000
vt 0.139627 0.505308
vt 0.621613 0.241724
vt 0.623051 0.249196
vt 0.625000 0.246300
vt 0.861937 0.503885
vt 0.622544 0.250000
vt 0.860783 0.500000
vt 0.622806 0.262730
vt 0.371948 0.737724
vt 0.388055 0.739048
vt 0.362187 0.748767
vt 0.386817 0.760074
vt 0.362322 0.750000
vt 0.364746 0.738710
vt 0.611685 0.738883
vt 0.623555 0.743591
vt 0.638850 0.738648
vt 0.612723 0.750000
vt 0.637701 0.750000
vt 0.612500 0.762719
vt 0.360810 0.505349
vt 0.362341 0.504159
vt 0.359680 0.500000
vt 0.383246 0.487266
vt 0.374970 0.515067
vt 0.388291 0.508487
vt 0.625000 0.504181
vt 0.636243 0.500000
vt 0.622806 0.487270
vt 0.625000 0.505064
vt 0.638501 0.503857
vt 0.621173 0.506060
vt 0.500000 0.988683
vt 0.503756 0.000000
vt 0.496819 1.000000
vt 0.500000 0.009898
vt 0.500000 0.242162
vt 0.500000 0.262732
vt 0.500000 0.487268
vt 0.500000 0.508157
vt 0.500000 0.739214
vt 0.500000 0.761047
vt 0.132746 0.583742
vt 0.136589 0.595122
vt 0.131028 0.583742
vt 0.125000 0.583742
vt 0.398031 0.166258
vt 0.138851 0.578865
vt 0.625000 0.166258
vt 0.625000 0.159046
vt 0.861518 0.594870
vt 0.621390 0.176455
vt 0.861722 0.576470
vt 0.625000 0.175097
vt 0.609235 0.166258
vt 0.363834 0.595037
vt 0.361394 0.578830
vt 0.399999 0.583742
vt 0.610629 0.595032
vt 0.615547 0.575867
vt 0.638332 0.576363
vt 0.638595 0.595057
vt 0.587054 0.987357
vt 0.587054 0.000000
vt 0.590806 0.000000
vt 0.587054 0.010508
vt 0.587054 0.241810
vt 0.587054 0.262736
vt 0.587054 0.487264
vt 0.587054 0.508296
vt 0.587054 0.738958
vt 0.587054 0.762297
vt 0.619266 0.211115
vt 0.622890 0.206766
vt 0.625000 0.205394
vt 0.860903 0.546155
vt 0.625000 0.211115
vt 0.625000 0.215174
vt 0.860921 0.535000
vt 0.389121 0.530705
vt 0.393381 0.545330
vt 0.361236 0.538885
vt 0.500000 0.218910
vt 0.497199 0.203208
vt 0.500000 0.203320
vt 0.511417 0.211115
vt 0.125000 0.538885
vt 0.125000 0.548775
vt 0.393032 0.205415
vt 0.125285 0.537215
vt 0.125000 0.537204
vt 0.389506 0.219091
vt 0.139324 0.538885
vt 0.619753 0.547122
vt 0.620781 0.533593
vt 0.639521 0.535030
vt 0.639159 0.546267
vt 0.500000 0.546976
vt 0.506641 0.532696
vt 0.500000 0.530794
vt 0.511321 0.538885
vt 0.606581 0.010637
vt 0.606581 0.987007
vt 0.610335 0.000000
vt 0.606581 0.000000
vt 0.606581 0.241222
vt 0.606581 0.262736
vt 0.606581 0.487264
vt 0.606581 0.507781
vt 0.606581 0.738903
vt 0.606581 0.762611
vt 0.606581 0.575389
vt 0.615847 0.591394
vt 0.606581 0.595022
vt 0.593226 0.583742
vt 0.606581 0.532112
vt 0.609107 0.543591
vt 0.606581 0.547226
vt 0.598217 0.538885
s 0
usemtl Material.007
f 49/86/1 1/1/1 39/69/1 21/38/1
f 8/8/2 62/101/2 18/30/2 83/134/2
f 29/54/3 38/68/3 79/128/3 65/108/3
f 53/90/4 44/79/4 14/21/4 25/45/4
f 22/40/5 40/70/5 33/61/5 11/15/5
f 72/120/6 68/111/6 35/65/6 15/24/6
f 81/130/7 12/16/7 46/83/7 7/7/7
f 90/142/8 50/87/8 24/43/8 87/138/8
f 17/29/9 27/49/9 67/110/9 73/121/9
f 16/27/10 36/66/10 37/67/10 28/52/10
f 41/72/11 47/84/11 23/42/11 10/12/11
f 93/146/12 74/122/12 51/88/12 89/140/12
f 7/7/13 46/83/13 62/101/13 8/8/13
f 77/125/14 63/104/14 45/81/14 52/89/14
f 55/94/15 81/130/15 7/7/15 4/4/15
f 88/139/16 26/48/16 13/17/16 82/131/16
f 68/111/17 70/114/17 6/6/17 56/95/17 35/65/17
f 5/5/18 94/147/18 93/146/18 89/140/18 91/143/18 3/3/18
f 34/64/19 55/94/19 4/4/19 2/2/19
f 42/75/20 2/2/20 69/113/20 71/117/20
f 38/68/21 59/98/21 5/5/21 80/129/21 79/128/21
f 36/66/22 57/96/22 58/97/22 37/67/22
f 78/126/23 80/129/23 5/5/23 3/3/23 1/1/23
f 1/1/24 3/3/24 60/99/24 39/69/24
f 40/70/25 61/100/25 54/91/25 33/61/25
f 31/59/26 19/33/26 64/107/26 76/124/26
f 84/135/27 20/36/27 30/57/27 85/136/27
f 86/137/28 32/60/28 75/123/28 92/144/28
f 73/121/29 67/110/29 48/85/29 43/76/29
f 66/109/30 78/126/30 1/1/30 49/86/30
f 4/4/31 7/7/31 8/8/31 6/6/31
f 3/3/32 91/143/32 90/142/32 87/138/32 60/99/32
f 61/100/33 88/139/33 82/131/33 54/91/33
f 6/6/34 8/8/34 83/134/34 56/95/34
f 2/2/35 4/4/35 6/6/35 70/114/35 69/113/35
f 59/98/36 86/137/36 92/144/36 94/147/36 5/5/36
f 57/96/37 84/135/37 85/136/37 58/97/37
f 9/9/38 10/12/38 11/13/38
f 12/16/39 13/18/39 14/22/39
f 15/23/40 16/26/40 17/29/40
f 18/30/41 19/31/41 20/34/41
f 21/37/42 22/39/42 23/42/42
f 24/43/43 25/44/43 26/46/43
f 27/49/44 28/50/44 29/53/44
f 30/55/45 31/58/45 32/60/45
f 41/71/46 42/73/46 43/76/46
f 44/77/47 45/80/47 46/83/47
f 47/84/48 48/85/48 49/86/48
f 50/87/49 51/88/49 52/89/49 53/90/49
f 62/101/50 63/102/50 64/105/50
f 65/108/51 66/109/51 67/110/51
f 68/111/52 69/112/52 70/114/52
f 71/115/53 72/118/53 73/121/53
f 74/122/54 75/123/54 76/124/54 77/125/54
f 78/126/55 79/127/55 80/129/55
f 89/140/56 90/141/56 91/143/56
f 92/144/57 93/145/57 94/147/57
f 41/72/58 10/12/58 9/9/58 42/74/58
f 82/132/59 13/19/59 12/16/59 81/130/59
f 64/106/60 19/32/60 18/30/60 62/101/60
f 36/66/61 16/27/61 15/24/61 35/65/61
f 27/49/62 17/29/62 16/28/62 28/51/62
f 19/33/63 31/59/63 30/56/63 20/35/63
f 38/68/64 29/54/64 28/52/64 37/67/64
f 67/110/65 27/49/65 29/54/65 65/108/65
f 53/90/66 25/45/66 24/43/66 50/87/66
f 40/70/67 22/40/67 21/38/67 39/69/67
f 10/12/68 23/42/68 22/41/68 11/14/68
f 25/45/69 14/21/69 13/20/69 26/47/69
f 11/15/70 33/61/70 34/63/70 9/10/70
f 57/96/71 36/66/71 35/65/71 56/95/71
f 59/98/72 38/68/72 37/67/72 58/97/72
f 61/100/73 40/70/73 39/69/73 60/99/73
f 73/121/74 43/76/74 42/74/74 71/116/74
f 14/22/75 44/78/75 46/83/75 12/16/75
f 23/42/76 47/84/76 49/86/76 21/38/76
f 77/125/77 52/89/77 51/88/77 74/122/77
f 44/79/78 53/90/78 52/89/78 45/81/78
f 47/84/79 41/72/79 43/76/79 48/85/79
f 33/62/80 54/92/80 55/94/80 34/64/80
f 84/135/81 57/96/81 56/95/81 83/134/81
f 86/137/82 59/98/82 58/97/82 85/136/82
f 88/139/83 61/100/83 60/99/83 87/138/83
f 45/82/84 63/103/84 62/101/84 46/83/84
f 48/85/85 67/110/85 66/109/85 49/86/85
f 17/29/86 73/121/86 72/119/86 15/25/86
f 31/59/87 76/124/87 75/123/87 32/60/87
f 63/104/88 77/125/88 76/124/88 64/107/88
f 78/126/89 66/109/89 65/108/89 79/128/89
f 68/111/90 72/120/90 71/117/90 69/113/90
f 54/93/91 82/133/91 81/130/91 55/94/91
f 20/36/92 84/135/92 83/134/92 18/30/92
f 32/60/93 86/137/93 85/136/93 30/57/93
f 26/48/94 88/139/94 87/138/94 24/43/94
f 50/87/95 90/142/95 89/140/95 51/88/95
f 74/122/96 93/146/96 92/144/96 75/123/96
f 9/11/97 34/64/97 2/2/97 42/75/97
